<svg width="42" height="43" viewBox="0 0 42 43" fill="none" xmlns="http://www.w3.org/2000/svg">
<path d="M30.2898 0.464355H40.1568L40.3735 0.493522L40.588 0.551856L40.718 0.606022C40.8913 0.676856 41.0495 0.783105 41.1925 0.918522L41.2792 1.01019L41.3745 1.12894L41.4915 1.31644L41.576 1.50394L41.6172 1.63727L41.6475 1.77061L41.667 1.96852V11.4102C41.6669 11.8061 41.5105 12.1871 41.2294 12.4764C40.9483 12.7657 40.5635 12.9416 40.1528 12.9686C39.742 12.9956 39.3359 12.8716 39.0165 12.6218C38.6971 12.372 38.4883 12.0149 38.4322 11.6227L38.417 11.4102V5.79561L24.4637 19.2123C24.1885 19.4769 23.8238 19.6378 23.4357 19.6657C23.0476 19.6936 22.662 19.5867 22.349 19.3644L22.167 19.2144L15.602 13.1519L3.27368 25.0039C2.98372 25.2835 2.59445 25.4472 2.18411 25.462C1.77378 25.4768 1.37282 25.3418 1.06185 25.0839C0.750881 24.8261 0.552957 24.4646 0.507875 24.0722C0.462792 23.6797 0.573894 23.2854 0.818843 22.9685L0.977009 22.7935L14.4537 9.83519C14.7291 9.57088 15.094 9.41037 15.4821 9.38285C15.8701 9.35532 16.2556 9.4626 16.5683 9.68519L16.7503 9.83519L23.3153 15.8977L36.116 3.58936H30.2877C29.8954 3.58884 29.5165 3.45187 29.221 3.20374C28.9255 2.95561 28.7334 2.61307 28.68 2.23936L28.6648 2.02686C28.6649 1.64928 28.8071 1.28448 29.0652 0.999917C29.3233 0.715357 29.6798 0.530289 30.0688 0.478939L30.292 0.464355H30.2898ZM2.12534 31.7144C2.55632 31.7144 2.96964 31.879 3.27439 32.172C3.57914 32.465 3.75034 32.8625 3.75034 33.2769V40.5685C3.75034 40.9829 3.57914 41.3804 3.27439 41.6734C2.96964 41.9664 2.55632 42.131 2.12534 42.131C1.69437 42.131 1.28104 41.9664 0.976294 41.6734C0.671547 41.3804 0.500343 40.9829 0.500343 40.5685V33.2769C0.500343 32.8625 0.671547 32.465 0.976294 32.172C1.28104 31.879 1.69437 31.7144 2.12534 31.7144V31.7144ZM14.5837 24.9435C14.5837 24.5291 14.4125 24.1317 14.1077 23.8387C13.803 23.5456 13.3897 23.381 12.9587 23.381C12.5277 23.381 12.1144 23.5456 11.8096 23.8387C11.5049 24.1317 11.3337 24.5291 11.3337 24.9435V40.5685C11.3337 40.9829 11.5049 41.3804 11.8096 41.6734C12.1144 41.9664 12.5277 42.131 12.9587 42.131C13.3897 42.131 13.803 41.9664 14.1077 41.6734C14.4125 41.3804 14.5837 40.9829 14.5837 40.5685V24.9435ZM23.792 27.5477C24.223 27.5477 24.6363 27.7123 24.9411 28.0053C25.2458 28.2984 25.417 28.6958 25.417 29.1102V40.5685C25.417 40.9829 25.2458 41.3804 24.9411 41.6734C24.6363 41.9664 24.223 42.131 23.792 42.131C23.361 42.131 22.9477 41.9664 22.643 41.6734C22.3382 41.3804 22.167 40.9829 22.167 40.5685V29.1102C22.167 28.6958 22.3382 28.2984 22.643 28.0053C22.9477 27.7123 23.361 27.5477 23.792 27.5477ZM36.2503 18.6935C36.2503 18.2791 36.0791 17.8817 35.7744 17.5887C35.4696 17.2956 35.0563 17.131 34.6253 17.131C34.1944 17.131 33.781 17.2956 33.4763 17.5887C33.1715 17.8817 33.0003 18.2791 33.0003 18.6935V40.5685C33.0003 40.9829 33.1715 41.3804 33.4763 41.6734C33.781 41.9664 34.1944 42.131 34.6253 42.131C35.0563 42.131 35.4696 41.9664 35.7744 41.6734C36.0791 41.3804 36.2503 40.9829 36.2503 40.5685V18.6935Z" fill="url(#paint0_linear_179_213)"/>
<defs>
<linearGradient id="paint0_linear_179_213" x1="41.667" y1="0.464355" x2="0.498047" y2="0.464355" gradientUnits="userSpaceOnUse">
<stop stop-color="#40C4FF"/>
<stop offset="1" stop-color="#651FFF"/>
</linearGradient>
</defs>
</svg>
