<svg width="40" height="41" viewBox="0 0 40 41" fill="none" xmlns="http://www.w3.org/2000/svg">
<path d="M18.75 15.5V23H11.25V15.5H18.75ZM18.75 33V25.5H11.25V33H18.75ZM28.75 15.5V23H21.25V15.5H28.75ZM28.75 33V25.5H21.25V33H28.75ZM12.5 8V4.25C12.5 3.25544 12.8951 2.30161 13.5983 1.59835C14.3016 0.895088 15.2554 0.5 16.25 0.5H23.75C24.7446 0.5 25.6984 0.895088 26.4017 1.59835C27.1049 2.30161 27.5 3.25544 27.5 4.25V8H38.75C39.0815 8 39.3995 8.1317 39.6339 8.36612C39.8683 8.60054 40 8.91848 40 9.25V34.25C40 35.9076 39.3415 37.4973 38.1694 38.6694C36.9973 39.8415 35.4076 40.5 33.75 40.5H6.25C4.5924 40.5 3.00269 39.8415 1.83058 38.6694C0.65848 37.4973 0 35.9076 0 34.25V9.25C0 8.91848 0.131696 8.60054 0.366117 8.36612C0.600537 8.1317 0.918479 8 1.25 8H12.5ZM15 4.25V8H25V4.25C25 3.91848 24.8683 3.60054 24.6339 3.36612C24.3995 3.1317 24.0815 3 23.75 3H16.25C15.9185 3 15.6005 3.1317 15.3661 3.36612C15.1317 3.60054 15 3.91848 15 4.25ZM2.5 34.25C2.5 35.2446 2.89509 36.1984 3.59835 36.9017C4.30161 37.6049 5.25544 38 6.25 38H33.75C34.7446 38 35.6984 37.6049 36.4016 36.9017C37.1049 36.1984 37.5 35.2446 37.5 34.25V10.5H2.5V34.25Z" fill="url(#paint0_linear_179_216)"/>
<defs>
<linearGradient id="paint0_linear_179_216" x1="40" y1="0.5" x2="0" y2="0.5" gradientUnits="userSpaceOnUse">
<stop stop-color="#40C4FF"/>
<stop offset="1" stop-color="#651FFF"/>
</linearGradient>
</defs>
</svg>
