<svg width="24" height="24" viewBox="0 0 24 24" fill="none" xmlns="http://www.w3.org/2000/svg">
<path d="M20.75 0.75C21.413 0.75 22.0489 1.01339 22.5178 1.48223C22.9866 1.95107 23.25 2.58696 23.25 3.25V20.75C23.25 21.413 22.9866 22.0489 22.5178 22.5178C22.0489 22.9866 21.413 23.25 20.75 23.25H3.25C2.58696 23.25 1.95107 22.9866 1.48223 22.5178C1.01339 22.0489 0.75 21.413 0.75 20.75V3.25C0.75 2.58696 1.01339 1.95107 1.48223 1.48223C1.95107 1.01339 2.58696 0.75 3.25 0.75H20.75ZM20.125 20.125V13.5C20.125 12.4192 19.6957 11.3828 18.9315 10.6185C18.1672 9.85433 17.1308 9.425 16.05 9.425C14.9875 9.425 13.75 10.075 13.15 11.05V9.6625H9.6625V20.125H13.15V13.9625C13.15 13 13.925 12.2125 14.8875 12.2125C15.3516 12.2125 15.7967 12.3969 16.1249 12.7251C16.4531 13.0533 16.6375 13.4984 16.6375 13.9625V20.125H20.125ZM5.6 7.7C6.15695 7.7 6.6911 7.47875 7.08492 7.08492C7.47875 6.6911 7.7 6.15695 7.7 5.6C7.7 4.4375 6.7625 3.4875 5.6 3.4875C5.03973 3.4875 4.50241 3.71007 4.10624 4.10624C3.71007 4.50241 3.4875 5.03973 3.4875 5.6C3.4875 6.7625 4.4375 7.7 5.6 7.7M7.3375 20.125V9.6625H3.875V20.125H7.3375V20.125Z" fill="url(#paint0_linear_179_540)"/>
<defs>
<linearGradient id="paint0_linear_179_540" x1="23.25" y1="0.75" x2="0.75" y2="0.75" gradientUnits="userSpaceOnUse">
<stop stop-color="#40C4FF"/>
<stop offset="1" stop-color="#651FFF"/>
</linearGradient>
</defs>
</svg>
