<svg width="39" height="39" viewBox="0 0 39 39" fill="none" xmlns="http://www.w3.org/2000/svg">
<path d="M0.25 7.125C0.25 5.30164 0.974328 3.55295 2.26364 2.26364C3.55295 0.974328 5.30164 0.25 7.125 0.25H31.875C33.6984 0.25 35.447 0.974328 36.7364 2.26364C38.0257 3.55295 38.75 5.30164 38.75 7.125V31.875C38.75 33.6984 38.0257 35.447 36.7364 36.7364C35.447 38.0257 33.6984 38.75 31.875 38.75H7.125C5.30164 38.75 3.55295 38.0257 2.26364 36.7364C0.974328 35.447 0.25 33.6984 0.25 31.875V7.125ZM7.125 3C6.03098 3 4.98177 3.4346 4.20818 4.20818C3.4346 4.98177 3 6.03098 3 7.125V8.5H36V7.125C36 6.03098 35.5654 4.98177 34.7918 4.20818C34.0182 3.4346 32.969 3 31.875 3H7.125ZM36 11.25H3V31.875C3 32.969 3.4346 34.0182 4.20818 34.7918C4.98177 35.5654 6.03098 36 7.125 36H31.875C32.969 36 34.0182 35.5654 34.7918 34.7918C35.5654 34.0182 36 32.969 36 31.875V11.25ZM5.75 16.75C5.75 16.0207 6.03973 15.3212 6.55546 14.8055C7.07118 14.2897 7.77066 14 8.5 14H14C14.7293 14 15.4288 14.2897 15.9445 14.8055C16.4603 15.3212 16.75 16.0207 16.75 16.75V30.5C16.75 31.2293 16.4603 31.9288 15.9445 32.4445C15.4288 32.9603 14.7293 33.25 14 33.25H8.5C7.77066 33.25 7.07118 32.9603 6.55546 32.4445C6.03973 31.9288 5.75 31.2293 5.75 30.5V16.75ZM14 16.75H8.5V30.5H14V16.75ZM19.5 20.875C19.5 20.5103 19.6449 20.1606 19.9027 19.9027C20.1606 19.6449 20.5103 19.5 20.875 19.5H29.125C29.4897 19.5 29.8394 19.6449 30.0973 19.9027C30.3551 20.1606 30.5 20.5103 30.5 20.875C30.5 21.2397 30.3551 21.5894 30.0973 21.8473C29.8394 22.1051 29.4897 22.25 29.125 22.25H20.875C20.5103 22.25 20.1606 22.1051 19.9027 21.8473C19.6449 21.5894 19.5 21.2397 19.5 20.875ZM20.875 14C20.5103 14 20.1606 14.1449 19.9027 14.4027C19.6449 14.6606 19.5 15.0103 19.5 15.375C19.5 15.7397 19.6449 16.0894 19.9027 16.3473C20.1606 16.6051 20.5103 16.75 20.875 16.75H31.875C32.2397 16.75 32.5894 16.6051 32.8473 16.3473C33.1051 16.0894 33.25 15.7397 33.25 15.375C33.25 15.0103 33.1051 14.6606 32.8473 14.4027C32.5894 14.1449 32.2397 14 31.875 14H20.875Z" fill="url(#paint0_linear_179_200)"/>
<defs>
<linearGradient id="paint0_linear_179_200" x1="38.75" y1="0.25" x2="0.25" y2="0.25" gradientUnits="userSpaceOnUse">
<stop stop-color="#40C4FF"/>
<stop offset="1" stop-color="#651FFF"/>
</linearGradient>
</defs>
</svg>
