<svg width="45" height="38" viewBox="0 0 45 38" fill="none" xmlns="http://www.w3.org/2000/svg">
<path d="M3.25 0.799805C2.52065 0.799805 1.82118 1.07373 1.30546 1.56133C0.789731 2.04892 0.5 2.71024 0.5 3.3998C0.5 4.08937 0.789731 4.75069 1.30546 5.23828C1.82118 5.72588 2.52065 5.9998 3.25 5.9998V21.5998C3.25 23.6685 4.11919 25.6525 5.66637 27.1152C7.21354 28.578 9.31196 29.3998 11.5 29.3998H21.125V34.5998H15.625C15.2603 34.5998 14.9106 34.7368 14.6527 34.9806C14.3949 35.2244 14.25 35.555 14.25 35.8998C14.25 36.2446 14.3949 36.5752 14.6527 36.819C14.9106 37.0628 15.2603 37.1998 15.625 37.1998H29.375C29.7397 37.1998 30.0894 37.0628 30.3473 36.819C30.6051 36.5752 30.75 36.2446 30.75 35.8998C30.75 35.555 30.6051 35.2244 30.3473 34.9806C30.0894 34.7368 29.7397 34.5998 29.375 34.5998H23.875V29.3998H33.5C35.688 29.3998 37.7865 28.578 39.3336 27.1152C40.8808 25.6525 41.75 23.6685 41.75 21.5998V5.9998C42.4793 5.9998 43.1788 5.72588 43.6945 5.23828C44.2103 4.75069 44.5 4.08937 44.5 3.3998C44.5 2.71024 44.2103 2.04892 43.6945 1.56133C43.1788 1.07373 42.4793 0.799805 41.75 0.799805H3.25ZM6 5.9998H39V21.5998C39 22.9789 38.4205 24.3016 37.3891 25.2768C36.3576 26.2519 34.9587 26.7998 33.5 26.7998H11.5C10.0413 26.7998 8.64236 26.2519 7.61091 25.2768C6.57946 24.3016 6 22.9789 6 21.5998V5.9998Z" fill="url(#paint0_linear_179_223)"/>
<defs>
<linearGradient id="paint0_linear_179_223" x1="44.5" y1="0.799805" x2="0.5" y2="0.799805" gradientUnits="userSpaceOnUse">
<stop stop-color="#40C4FF"/>
<stop offset="1" stop-color="#651FFF"/>
</linearGradient>
</defs>
</svg>
