<svg width="48" height="42" viewBox="0 0 48 42" fill="none" xmlns="http://www.w3.org/2000/svg">
<path d="M17 12.375C17 13.469 16.5654 14.5182 15.7918 15.2918C15.0182 16.0654 13.969 16.5 12.875 16.5C11.781 16.5 10.7318 16.0654 9.95818 15.2918C9.1846 14.5182 8.75 13.469 8.75 12.375C8.75 11.281 9.1846 10.2318 9.95818 9.45818C10.7318 8.6846 11.781 8.25 12.875 8.25C13.969 8.25 15.0182 8.6846 15.7918 9.45818C16.5654 10.2318 17 11.281 17 12.375ZM6 21.1723C6.00073 20.4803 6.27592 19.8169 6.76518 19.3277C7.25445 18.8384 7.91783 18.5632 8.60975 18.5625H17.1375C17.8294 18.5632 18.4928 18.8384 18.9821 19.3277C19.4713 19.8169 19.7465 20.4803 19.7473 21.1723C19.7473 23.5015 18.1605 25.531 15.9 26.0975L15.7378 26.1388C13.8568 26.6063 11.8878 26.6063 10.0068 26.1388L9.84175 26.0975C8.74402 25.8222 7.76974 25.188 7.07369 24.2957C6.37764 23.4033 5.99973 22.304 6 21.1723V21.1723ZM26.625 11C26.2603 11 25.9106 11.1449 25.6527 11.4027C25.3949 11.6606 25.25 12.0103 25.25 12.375C25.25 12.7397 25.3949 13.0894 25.6527 13.3473C25.9106 13.6051 26.2603 13.75 26.625 13.75H34.875C35.2397 13.75 35.5894 13.6051 35.8473 13.3473C36.1051 13.0894 36.25 12.7397 36.25 12.375C36.25 12.0103 36.1051 11.6606 35.8473 11.4027C35.5894 11.1449 35.2397 11 34.875 11H26.625ZM26.625 19.25C26.2603 19.25 25.9106 19.3949 25.6527 19.6527C25.3949 19.9106 25.25 20.2603 25.25 20.625C25.25 20.9897 25.3949 21.3394 25.6527 21.5973C25.9106 21.8551 26.2603 22 26.625 22H28.3465C28.5968 21.0238 28.979 20.1025 29.474 19.25H26.625ZM5.3125 30.25H29.4713C29.8398 30.8825 30.2688 31.4792 30.75 32.0265V33H5.3125C4.03615 33 2.81207 32.493 1.90955 31.5905C1.00703 30.6879 0.5 29.4639 0.5 28.1875V4.8125C0.5 2.156 2.656 0 5.3125 0H39.6875C42.344 0 44.5 2.156 44.5 4.8125V15.2212C43.6388 14.7229 42.7136 14.3445 41.75 14.0965V4.8125C41.75 4.26549 41.5327 3.74089 41.1459 3.35409C40.7591 2.9673 40.2345 2.75 39.6875 2.75H5.3125C4.76549 2.75 4.24089 2.9673 3.85409 3.35409C3.4673 3.74089 3.25 4.26549 3.25 4.8125V28.1875C3.25 29.326 4.174 30.25 5.3125 30.25ZM47.25 24.75C47.25 26.938 46.3808 29.0365 44.8336 30.5836C43.2865 32.1308 41.188 33 39 33C36.812 33 34.7135 32.1308 33.1664 30.5836C31.6192 29.0365 30.75 26.938 30.75 24.75C30.75 22.562 31.6192 20.4635 33.1664 18.9164C34.7135 17.3692 36.812 16.5 39 16.5C41.188 16.5 43.2865 17.3692 44.8336 18.9164C46.3808 20.4635 47.25 22.562 47.25 24.75V24.75ZM44.5 34.2788C42.8285 35.2455 40.931 35.7531 39 35.75C37.069 35.7531 35.1716 35.2455 33.5 34.2788V40.5625C33.4999 40.6841 33.532 40.8035 33.593 40.9086C33.6541 41.0137 33.7419 41.1007 33.8476 41.1608C33.9533 41.2209 34.073 41.2519 34.1945 41.2507C34.316 41.2494 34.4351 41.216 34.5395 41.1538L39 38.5L43.4605 41.1538C43.5649 41.216 43.684 41.2494 43.8055 41.2507C43.9271 41.2519 44.0468 41.2209 44.1524 41.1608C44.2581 41.1007 44.3459 41.0137 44.407 40.9086C44.468 40.8035 44.5001 40.6841 44.5 40.5625V34.2788Z" fill="url(#paint0_linear_179_207)"/>
<defs>
<linearGradient id="paint0_linear_179_207" x1="47.25" y1="0" x2="0.5" y2="0" gradientUnits="userSpaceOnUse">
<stop stop-color="#40C4FF"/>
<stop offset="1" stop-color="#651FFF"/>
</linearGradient>
</defs>
</svg>
