<svg width="28" height="22" viewBox="0 0 28 22" fill="none" xmlns="http://www.w3.org/2000/svg">
<path d="M27.0748 2.5C26.1123 2.9375 25.0748 3.225 23.9998 3.3625C25.0998 2.7 25.9498 1.65 26.3498 0.3875C25.3123 1.0125 24.1623 1.45 22.9498 1.7C21.9623 0.625 20.5748 0 18.9998 0C16.0623 0 13.6623 2.4 13.6623 5.3625C13.6623 5.7875 13.7123 6.2 13.7998 6.5875C9.3498 6.3625 5.3873 4.225 2.7498 0.9875C2.2873 1.775 2.0248 2.7 2.0248 3.675C2.0248 5.5375 2.9623 7.1875 4.4123 8.125C3.5248 8.125 2.6998 7.875 1.9748 7.5V7.5375C1.9748 10.1375 3.8248 12.3125 6.2748 12.8C5.48821 13.0153 4.66242 13.0452 3.8623 12.8875C4.20181 13.9531 4.86673 14.8855 5.76358 15.5537C6.66042 16.2218 7.74411 16.5921 8.8623 16.6125C6.96684 18.113 4.6173 18.9241 2.1998 18.9125C1.7748 18.9125 1.3498 18.8875 0.924805 18.8375C3.2998 20.3625 6.1248 21.25 9.1498 21.25C18.9998 21.25 24.4123 13.075 24.4123 5.9875C24.4123 5.75 24.4123 5.525 24.3998 5.2875C25.4498 4.5375 26.3498 3.5875 27.0748 2.5V2.5Z" fill="url(#paint0_linear_179_542)"/>
<defs>
<linearGradient id="paint0_linear_179_542" x1="27.0748" y1="0" x2="0.924805" y2="0" gradientUnits="userSpaceOnUse">
<stop stop-color="#40C4FF"/>
<stop offset="1" stop-color="#651FFF"/>
</linearGradient>
</defs>
</svg>
