<svg width="45" height="42" viewBox="0 0 45 42" fill="none" xmlns="http://www.w3.org/2000/svg">
<path d="M2.8125 4.2C2.8125 3.08609 3.25697 2.0178 4.04814 1.23015C4.83931 0.442499 5.91237 0 7.03125 0H37.9688C39.0876 0 40.1607 0.442499 40.9519 1.23015C41.743 2.0178 42.1875 3.08609 42.1875 4.2V23.8C42.1875 24.9139 41.743 25.9822 40.9519 26.7698C40.1607 27.5575 39.0876 28 37.9688 28H22.5V25.2H37.9688C38.3417 25.2 38.6994 25.0525 38.9631 24.79C39.2268 24.5274 39.375 24.1713 39.375 23.8V4.2C39.375 3.8287 39.2268 3.4726 38.9631 3.21005C38.6994 2.9475 38.3417 2.8 37.9688 2.8H7.03125C6.65829 2.8 6.3006 2.9475 6.03688 3.21005C5.77316 3.4726 5.625 3.8287 5.625 4.2V8.4H2.8125V4.2ZM22.5 33.6H43.5938C43.9667 33.6 44.3244 33.4525 44.5881 33.1899C44.8518 32.9274 45 32.5713 45 32.2C45 31.8287 44.8518 31.4726 44.5881 31.21C44.3244 30.9475 43.9667 30.8 43.5938 30.8H22.5V33.6ZM8.4375 33.6C8.06454 33.6 7.70685 33.7475 7.44313 34.01C7.17941 34.2726 7.03125 34.6287 7.03125 35C7.03125 35.3713 7.17941 35.7274 7.44313 35.9899C7.70685 36.2525 8.06454 36.4 8.4375 36.4H11.25C11.623 36.4 11.9806 36.2525 12.2444 35.9899C12.5081 35.7274 12.6562 35.3713 12.6562 35C12.6562 34.6287 12.5081 34.2726 12.2444 34.01C11.9806 33.7475 11.623 33.6 11.25 33.6H8.4375ZM0 15.4C0 14.2861 0.444474 13.2178 1.23564 12.4302C2.02681 11.6425 3.09987 11.2 4.21875 11.2H15.4688C16.5876 11.2 17.6607 11.6425 18.4519 12.4302C19.243 13.2178 19.6875 14.2861 19.6875 15.4V37.8C19.6875 38.9139 19.243 39.9822 18.4519 40.7698C17.6607 41.5575 16.5876 42 15.4688 42H4.21875C3.09987 42 2.02681 41.5575 1.23564 40.7698C0.444474 39.9822 0 38.9139 0 37.8V15.4ZM4.21875 14C3.84579 14 3.4881 14.1475 3.22438 14.41C2.96066 14.6726 2.8125 15.0287 2.8125 15.4V37.8C2.8125 38.1713 2.96066 38.5274 3.22438 38.7899C3.4881 39.0525 3.84579 39.2 4.21875 39.2H15.4688C15.8417 39.2 16.1994 39.0525 16.4631 38.7899C16.7268 38.5274 16.875 38.1713 16.875 37.8V15.4C16.875 15.0287 16.7268 14.6726 16.4631 14.41C16.1994 14.1475 15.8417 14 15.4688 14H4.21875Z" fill="url(#paint0_linear_179_197)"/>
<defs>
<linearGradient id="paint0_linear_179_197" x1="45" y1="0" x2="0" y2="0" gradientUnits="userSpaceOnUse">
<stop stop-color="#40C4FF"/>
<stop offset="1" stop-color="#651FFF"/>
</linearGradient>
</defs>
</svg>
