<svg width="209" height="47" viewBox="0 0 209 47" fill="none" xmlns="http://www.w3.org/2000/svg">
<g clip-path="url(#clip0_179_521)">
<path d="M46.7183 10.0892C47.5729 9.87928 48.7125 9.64064 50.1299 9.40055C51.7388 9.1461 53.3658 9.02589 54.9944 9.04115C56.4026 8.99611 57.8052 9.24067 59.1168 9.75996C60.1383 10.1849 61.0362 10.8646 61.7264 11.7352C62.4144 12.6297 62.8821 13.6762 63.091 14.7887C63.374 16.0763 63.5135 17.3917 63.507 18.7106V30.476H59.8034V19.4883C59.8181 18.3749 59.7289 17.2625 59.537 16.166C59.4065 15.376 59.1155 14.6217 58.6823 13.9506C58.2958 13.3759 57.7335 12.9447 57.0812 12.7229C56.2829 12.4342 55.4373 12.3019 54.5898 12.3333C54.1739 12.3333 53.7893 12.3333 53.3434 12.3635C52.9275 12.3937 52.513 12.4239 52.1269 12.4526C51.7783 12.4795 51.4315 12.5275 51.0885 12.5964C50.7922 12.6568 50.5543 12.6855 50.4361 12.7157V30.4458H46.7325L46.7183 10.0892Z" fill="white"/>
<path d="M13.0808 9.5199V27.2414C12.9626 27.2716 12.7247 27.3018 12.4284 27.3607C12.1322 27.4197 11.776 27.4499 11.39 27.5045C11.004 27.5347 10.5895 27.5649 10.1735 27.5936C9.75758 27.6224 9.34306 27.6238 8.92711 27.6238C8.07995 27.6501 7.23528 27.518 6.43573 27.2342C5.79788 26.9857 5.24278 26.5601 4.83463 26.0065C4.40147 25.3354 4.11049 24.5811 3.97995 23.7911C3.78384 22.6974 3.69131 21.5874 3.70361 20.476V9.5199H6.08157e-06V21.3084C-0.00102199 22.6253 0.128296 23.9391 0.386035 25.2302C0.613862 26.3366 1.07972 27.379 1.75067 28.2837C2.44091 29.1544 3.33881 29.834 4.36029 30.259C5.67189 30.7782 7.07447 31.0228 8.48268 30.9778C10.0107 30.9946 11.5378 30.8946 13.0509 30.6787V47L16.7887 39.8119V9.5199H13.0808Z" fill="white"/>
<path d="M24.2643 27.5117C24.1476 27.0118 24.0996 26.498 24.1218 25.9849V0L20.3783 0.658428V26.6132C20.312 27.4055 20.4039 28.2033 20.6486 28.9592C20.8932 29.715 21.2857 30.4137 21.8028 31.0137C22.1518 31.3468 22.5526 31.6198 22.9894 31.8216L24.7984 28.5583L24.7685 28.5281C24.5145 28.2401 24.3405 27.8895 24.2643 27.5117Z" fill="white"/>
<path d="M42.9235 13.7407C42.6788 12.8001 42.222 11.9292 41.5888 11.1961C40.9088 10.4446 40.0519 9.8784 39.0974 9.55005C37.8867 9.12659 36.6108 8.92408 35.3297 8.952C33.8631 8.95327 32.3977 9.03341 30.9395 9.19209L29.1889 12.8738C29.7818 12.6857 30.3861 12.5359 30.9979 12.4253C32.3142 12.2361 33.6427 12.1463 34.9722 12.1565C35.7736 12.1319 36.5714 12.2748 37.3154 12.5762C37.8787 12.8262 38.3691 13.2177 38.7399 13.7134C39.0952 14.1908 39.3388 14.7432 39.4521 15.3293C39.5798 15.9296 39.6495 16.5411 39.6601 17.155V18.2031C39.5419 18.1729 39.3638 18.1427 39.0903 18.0837C38.8168 18.0248 38.4977 17.9644 38.1416 17.904C37.7855 17.8437 37.3995 17.7847 37.0149 17.7603C36.6303 17.7358 36.2143 17.6999 35.8582 17.6999C34.7312 17.6946 33.6071 17.8151 32.5064 18.0593C31.519 18.2727 30.5758 18.6575 29.7188 19.1965C28.9348 19.7036 28.2835 20.394 27.82 21.2091C27.3247 22.1258 27.079 23.1586 27.1077 24.2022C27.0861 25.2707 27.288 26.3318 27.7003 27.3161C28.0717 28.1396 28.6557 28.8472 29.3911 29.3647C30.156 29.9151 31.0241 30.302 31.9423 30.5019C33.0025 30.7495 34.0878 30.8702 35.1759 30.8613C36.0068 30.8613 36.8373 30.8316 37.6673 30.7721C38.4977 30.7118 39.2983 30.6284 40.0105 30.5623C40.7227 30.4731 41.3751 30.3826 41.9392 30.2934C42.5033 30.2043 42.9478 30.1137 43.274 30.0835V16.9739C43.3142 15.8847 43.1961 14.7954 42.9235 13.7407ZM39.69 27.4814C39.1352 27.6105 38.5685 27.6809 37.9992 27.6913C37.3168 27.7215 36.5462 27.7517 35.6559 27.7517C34.4516 27.8057 33.2544 27.5374 32.1859 26.974C31.741 26.665 31.387 26.2405 31.1613 25.7453C30.9357 25.2501 30.8467 24.7026 30.9039 24.1606C30.8806 23.5324 31.0573 22.9131 31.4082 22.3937C31.7514 21.9417 32.1995 21.5818 32.713 21.3457C33.2602 21.0958 33.8394 20.9245 34.4337 20.8368C35.0232 20.7543 35.6178 20.7145 36.2129 20.7175C36.9372 20.711 37.6609 20.7591 38.3781 20.8612C38.8248 20.9161 39.2631 21.0267 39.6829 21.1904L39.69 27.4814Z" fill="white"/>
<path d="M84.2995 25.3265C84.3188 24.8041 84.2192 24.2841 84.0083 23.8066C83.7974 23.3291 83.4809 22.9068 83.083 22.572C81.7428 21.66 80.245 21.01 78.6672 20.6557C77.0066 20.2664 75.4224 19.5987 73.9807 18.6804C73.3454 18.2489 72.8226 17.6692 72.4565 16.9903C72.0905 16.3115 71.8921 15.5536 71.8781 14.7809C71.8642 14.0082 72.035 13.2435 72.3762 12.5516C72.7175 11.8597 73.219 11.2611 73.8383 10.8065C75.2914 9.76698 77.044 9.24089 78.8239 9.30999C80.0954 9.28696 81.3548 9.5636 82.5019 10.1179C83.5384 10.6068 84.4136 11.3863 85.0231 12.3635C85.6196 13.3222 85.9288 14.4345 85.9134 15.5665H84.1628C84.1908 14.9195 84.0749 14.2744 83.8235 13.6785C83.572 13.0827 83.1915 12.5513 82.7098 12.1234C81.621 11.2157 80.2341 10.7539 78.8239 10.8296C77.4842 10.7571 76.1587 11.1364 75.0562 11.9078C74.6146 12.2202 74.2563 12.6379 74.013 13.1236C73.7697 13.6094 73.649 14.1483 73.6616 14.6924C73.6543 15.1983 73.7668 15.6986 73.9898 16.1517C74.2128 16.6049 74.5398 16.9976 74.9437 17.2974C76.1672 18.1355 77.5355 18.7348 78.9777 19.0642C80.4389 19.421 81.8529 19.9519 83.1898 20.6456C84.0601 21.1163 84.8034 21.7944 85.355 22.6209C85.8392 23.4333 86.0861 24.3672 86.0673 25.315C86.0875 26.0852 85.9195 26.8487 85.5782 27.5379C85.2369 28.2272 84.7327 28.821 84.1101 29.267C82.6087 30.318 80.8075 30.8437 78.982 30.7635C77.6094 30.7746 76.2483 30.5102 74.9778 29.9858C73.8616 29.5383 72.9016 28.7675 72.2186 27.7704C71.5865 26.8027 71.2561 25.666 71.2699 24.507H73.0206C72.9917 25.1762 73.1251 25.8425 73.4094 26.4478C73.6936 27.0531 74.1201 27.5792 74.6516 27.9803C75.9125 28.8854 77.4362 29.3407 78.982 29.2742C80.3579 29.3407 81.7191 28.963 82.8679 28.196C83.3174 27.8689 83.6822 27.4374 83.9314 26.9379C84.1806 26.4384 84.3069 25.8857 84.2995 25.3265Z" fill="white"/>
<path d="M103.936 21.1646C103.97 22.902 103.637 24.6268 102.957 26.2236C102.363 27.5952 101.384 28.7609 100.14 29.5761C98.8666 30.3692 97.3937 30.7745 95.8978 30.7435C94.793 30.7801 93.6941 30.5649 92.683 30.1139C91.6719 29.6629 90.7745 28.9877 90.0575 28.1385C88.4873 26.1362 87.696 23.6239 87.8325 21.0741V18.9176C87.796 17.177 88.1404 15.4497 88.841 13.8587C89.426 12.4734 90.407 11.2956 91.6586 10.476C92.9331 9.7117 94.3882 9.30835 95.8708 9.30835C97.3533 9.30835 98.8084 9.7117 100.083 10.476C101.324 11.2682 102.305 12.4144 102.9 13.7695C103.587 15.3135 103.941 16.9868 103.939 18.679V21.1632L103.936 21.1646ZM102.185 18.8889C102.31 16.7864 101.713 14.7049 100.495 12.9947C99.9219 12.3253 99.2127 11.7888 98.4153 11.4221C97.618 11.0553 96.7515 10.8669 95.8753 10.8698C94.999 10.8726 94.1338 11.0667 93.3389 11.4387C92.5439 11.8107 91.8381 12.3518 91.2698 13.0249C90.0366 14.7644 89.4294 16.877 89.549 19.0125V21.1977C89.4328 23.2908 90.0294 25.361 91.2398 27.0646C91.786 27.769 92.4905 28.3319 93.295 28.7069C94.0996 29.0819 94.9811 29.2581 95.8665 29.221C96.7528 29.2645 97.6364 29.0911 98.4419 28.7156C99.2475 28.3402 99.9512 27.7737 100.493 27.0646C101.688 25.3208 102.273 23.2242 102.154 21.1071V18.8903L102.185 18.8889Z" fill="white"/>
<path d="M108.09 28.978H118.293V30.4746H106.339V9.60901H108.09V28.978Z" fill="white"/>
<path d="M133.089 9.60901V23.8587C133.109 25.1463 132.792 26.4165 132.169 27.5404C131.573 28.5765 130.684 29.4103 129.617 29.9355C128.437 30.517 127.135 30.8044 125.821 30.7736C123.918 30.8681 122.051 30.2259 120.601 28.978C119.934 28.34 119.408 27.5681 119.055 26.7121C118.702 25.8561 118.532 24.935 118.554 24.0082V9.63201H120.274V23.7322C120.232 24.4817 120.342 25.232 120.597 25.9372C120.852 26.6424 121.247 27.2877 121.757 27.8337C122.301 28.3337 122.937 28.7206 123.63 28.9722C124.322 29.2238 125.056 29.3352 125.791 29.3C126.53 29.3671 127.274 29.2702 127.972 29.0161C128.669 28.7619 129.303 28.3568 129.829 27.829C130.355 27.3012 130.759 26.6637 131.015 25.9611C131.271 25.2586 131.371 24.5081 131.308 23.7623V9.60901H133.089Z" fill="white"/>
<path d="M150.832 11.0754H143.743V30.4444H141.992V11.0754H134.934V9.57886H150.832V11.0754Z" fill="white"/>
<path d="M154.808 30.4444H153.057V9.60901H154.808V30.4444Z" fill="white"/>
<path d="M173.672 21.1646C173.706 22.902 173.373 24.6268 172.693 26.2236C172.099 27.5952 171.12 28.7609 169.876 29.5761C168.602 30.3692 167.129 30.7745 165.634 30.7435C164.529 30.7802 163.43 30.565 162.419 30.114C161.408 29.663 160.51 28.9878 159.793 28.1385C158.223 26.1362 157.432 23.6239 157.568 21.0741V18.9176C157.532 17.177 157.876 15.4497 158.577 13.8587C159.162 12.4734 160.143 11.2956 161.394 10.476C162.669 9.7117 164.124 9.30835 165.607 9.30835C167.089 9.30835 168.544 9.7117 169.819 10.476C171.06 11.2682 172.041 12.4144 172.636 13.7695C173.323 15.3135 173.676 16.9868 173.675 18.679L173.672 21.1646ZM171.921 18.8889C172.046 16.7864 171.449 14.7049 170.23 12.9947C169.658 12.3251 168.949 11.7884 168.151 11.4215C167.354 11.0546 166.487 10.8661 165.611 10.869C164.735 10.8718 163.869 11.066 163.074 11.4381C162.28 11.8103 161.574 12.3515 161.006 13.0249C159.772 14.7643 159.165 16.877 159.285 19.0125V21.1977C159.169 23.2908 159.765 25.361 160.976 27.0646C161.522 27.769 162.226 28.3319 163.031 28.7069C163.835 29.0819 164.717 29.2581 165.602 29.221C166.489 29.2645 167.372 29.0911 168.178 28.7156C168.983 28.3402 169.687 27.7737 170.229 27.0646C171.424 25.3208 172.009 23.2242 171.89 21.1071V18.8903L171.921 18.8889Z" fill="white"/>
<path d="M191.469 30.4444H189.718L177.824 12.6021V30.4444H176.075V9.60901H177.825L189.72 27.4815V9.60901H191.44V30.4444H191.469Z" fill="white"/>
<path d="M207.249 25.3265C207.268 24.8041 207.169 24.2841 206.958 23.8066C206.747 23.3291 206.431 22.9068 206.033 22.572C204.692 21.66 203.195 21.01 201.617 20.6557C199.956 20.2664 198.372 19.5987 196.93 18.6804C196.295 18.2489 195.772 17.6692 195.406 16.9903C195.04 16.3115 194.842 15.5536 194.828 14.7809C194.814 14.0082 194.985 13.2435 195.326 12.5516C195.667 11.8597 196.169 11.2611 196.788 10.8065C198.241 9.76698 199.994 9.24089 201.774 9.30999C203.045 9.28696 204.304 9.5636 205.451 10.1179C206.488 10.6067 207.363 11.3862 207.973 12.3635C208.569 13.3222 208.878 14.4345 208.863 15.5665H207.112C207.141 14.9195 207.025 14.2743 206.773 13.6785C206.522 13.0826 206.141 12.5512 205.659 12.1234C204.571 11.2157 203.184 10.7539 201.774 10.8296C200.434 10.7571 199.108 11.1364 198.006 11.9078C197.564 12.2202 197.206 12.6379 196.963 13.1236C196.719 13.6094 196.599 14.1483 196.611 14.6924C196.604 15.1983 196.716 15.6986 196.939 16.1517C197.162 16.6049 197.489 16.9976 197.893 17.2974C199.117 18.1355 200.485 18.7348 201.927 19.0642C203.389 19.421 204.803 19.9518 206.14 20.6456C207.01 21.1163 207.753 21.7944 208.305 22.6209C208.789 23.4333 209.036 24.3672 209.017 25.315C209.037 26.0852 208.869 26.8487 208.528 27.5379C208.186 28.2272 207.682 28.821 207.06 29.267C205.558 30.318 203.757 30.8437 201.932 30.7635C200.559 30.7746 199.198 30.5102 197.927 29.9858C196.811 29.5383 195.851 28.7675 195.168 27.7704C194.536 26.8027 194.206 25.666 194.22 24.507H195.97C195.941 25.1762 196.075 25.8425 196.359 26.4478C196.643 27.0531 197.07 27.5792 197.601 27.9803C198.862 28.8854 200.386 29.3407 201.932 29.2742C203.308 29.3407 204.669 28.963 205.818 28.196C206.267 27.8689 206.632 27.4374 206.881 26.9379C207.13 26.4384 207.257 25.8857 207.249 25.3265Z" fill="white"/>
</g>
<defs>
<clipPath id="clip0_179_521">
<rect width="209" height="47" fill="white"/>
</clipPath>
</defs>
</svg>
