<svg width="209" height="47" viewBox="0 0 209 47" fill="none" xmlns="http://www.w3.org/2000/svg">
<g clip-path="url(#clip0_179_502)">
<path d="M46.7183 10.0894C47.5729 9.87952 48.7125 9.64088 50.1299 9.4008C51.7388 9.14634 53.3658 9.02613 54.9944 9.04139C56.4026 8.99635 57.8052 9.24092 59.1168 9.7602C60.1383 10.1852 61.0362 10.8648 61.7264 11.7355C62.4144 12.6299 62.8821 13.6765 63.091 14.789C63.374 16.0765 63.5135 17.392 63.507 18.7108V30.4763H59.8034V19.4885C59.8181 18.3751 59.7289 17.2628 59.537 16.1662C59.4065 15.3762 59.1155 14.622 58.6823 13.9509C58.2958 13.3761 57.7335 12.9449 57.0812 12.7231C56.2829 12.4344 55.4373 12.3022 54.5898 12.3335C54.1739 12.3335 53.7893 12.3335 53.3434 12.3637C52.9275 12.3939 52.513 12.4241 52.1269 12.4529C51.7783 12.4797 51.4315 12.5277 51.0885 12.5966C50.7922 12.657 50.5543 12.6858 50.4361 12.7159V30.4461H46.7325L46.7183 10.0894Z" fill="#404040"/>
<path d="M46.7183 10.0894C47.5729 9.87952 48.7125 9.64088 50.1299 9.4008C51.7388 9.14634 53.3658 9.02613 54.9944 9.04139C56.4026 8.99635 57.8052 9.24092 59.1168 9.7602C60.1383 10.1852 61.0362 10.8648 61.7264 11.7355C62.4144 12.6299 62.8821 13.6765 63.091 14.789C63.374 16.0765 63.5135 17.392 63.507 18.7108V30.4763H59.8034V19.4885C59.8181 18.3751 59.7289 17.2628 59.537 16.1662C59.4065 15.3762 59.1155 14.622 58.6823 13.9509C58.2958 13.3761 57.7335 12.9449 57.0812 12.7231C56.2829 12.4344 55.4373 12.3022 54.5898 12.3335C54.1739 12.3335 53.7893 12.3335 53.3434 12.3637C52.9275 12.3939 52.513 12.4241 52.1269 12.4529C51.7783 12.4797 51.4315 12.5277 51.0885 12.5966C50.7922 12.657 50.5543 12.6858 50.4361 12.7159V30.4461H46.7325L46.7183 10.0894Z" fill="black" fill-opacity="0.2"/>
<path d="M13.0808 9.52002V27.2415C12.9626 27.2717 12.7247 27.3019 12.4284 27.3608C12.1322 27.4198 11.776 27.45 11.39 27.5046C11.004 27.5348 10.5895 27.565 10.1735 27.5937C9.75758 27.6225 9.34306 27.6239 8.92711 27.6239C8.07995 27.6502 7.23528 27.5181 6.43573 27.2343C5.79788 26.9859 5.24278 26.5602 4.83463 26.0066C4.40147 25.3355 4.11048 24.5813 3.97995 23.7912C3.78384 22.6975 3.69131 21.5875 3.70361 20.4761V9.52002H6.08157e-06V21.3085C-0.00102199 22.6255 0.128296 23.9393 0.386035 25.2303C0.613862 26.3367 1.07972 27.3791 1.75067 28.2838C2.44091 29.1545 3.33881 29.8341 4.36029 30.2591C5.67189 30.7784 7.07447 31.0229 8.48268 30.9779C10.0107 30.9947 11.5378 30.8947 13.0509 30.6789V47.0001L16.7887 39.812V9.52002H13.0808Z" fill="#404040"/>
<path d="M13.0808 9.52002V27.2415C12.9626 27.2717 12.7247 27.3019 12.4284 27.3608C12.1322 27.4198 11.776 27.45 11.39 27.5046C11.004 27.5348 10.5895 27.565 10.1735 27.5937C9.75758 27.6225 9.34306 27.6239 8.92711 27.6239C8.07995 27.6502 7.23528 27.5181 6.43573 27.2343C5.79788 26.9859 5.24278 26.5602 4.83463 26.0066C4.40147 25.3355 4.11048 24.5813 3.97995 23.7912C3.78384 22.6975 3.69131 21.5875 3.70361 20.4761V9.52002H6.08157e-06V21.3085C-0.00102199 22.6255 0.128296 23.9393 0.386035 25.2303C0.613862 26.3367 1.07972 27.3791 1.75067 28.2838C2.44091 29.1545 3.33881 29.8341 4.36029 30.2591C5.67189 30.7784 7.07447 31.0229 8.48268 30.9779C10.0107 30.9947 11.5378 30.8947 13.0509 30.6789V47.0001L16.7887 39.812V9.52002H13.0808Z" fill="black" fill-opacity="0.2"/>
<path d="M24.2643 27.5117C24.1476 27.0118 24.0996 26.498 24.1218 25.9849V0L20.3783 0.658428V26.6132C20.312 27.4055 20.4039 28.2033 20.6486 28.9592C20.8932 29.715 21.2857 30.4137 21.8028 31.0137C22.1518 31.3468 22.5526 31.6198 22.9894 31.8216L24.7984 28.5583L24.7685 28.5281C24.5145 28.2401 24.3405 27.8895 24.2643 27.5117Z" fill="#404040"/>
<path d="M24.2643 27.5117C24.1476 27.0118 24.0996 26.498 24.1218 25.9849V0L20.3783 0.658428V26.6132C20.312 27.4055 20.4039 28.2033 20.6486 28.9592C20.8932 29.715 21.2857 30.4137 21.8028 31.0137C22.1518 31.3468 22.5526 31.6198 22.9894 31.8216L24.7984 28.5583L24.7685 28.5281C24.5145 28.2401 24.3405 27.8895 24.2643 27.5117Z" fill="black" fill-opacity="0.2"/>
<path d="M42.9235 13.7409C42.6788 12.8003 42.222 11.9294 41.5888 11.1964C40.9088 10.4448 40.0519 9.87864 39.0974 9.5503C37.8867 9.12683 36.6108 8.92432 35.3297 8.95225C33.8631 8.95351 32.3977 9.03365 30.9395 9.19233L29.1889 12.8741C29.7818 12.6859 30.3861 12.5361 30.9979 12.4255C32.3142 12.2364 33.6427 12.1465 34.9722 12.1567C35.7736 12.1322 36.5714 12.2751 37.3154 12.5765C37.8787 12.8265 38.3691 13.218 38.7399 13.7136C39.0952 14.191 39.3388 14.7435 39.4521 15.3295C39.5798 15.9299 39.6495 16.5413 39.6601 17.1553V18.2033C39.5419 18.1731 39.3638 18.1429 39.0903 18.084C38.8168 18.025 38.4977 17.9647 38.1416 17.9043C37.7855 17.8439 37.3995 17.785 37.0149 17.7605C36.6303 17.7361 36.2143 17.7001 35.8582 17.7001C34.7312 17.6948 33.6071 17.8154 32.5064 18.0596C31.519 18.273 30.5758 18.6577 29.7188 19.1967C28.9348 19.7039 28.2835 20.3942 27.82 21.2094C27.3247 22.1261 27.079 23.1588 27.1077 24.2025C27.0861 25.271 27.288 26.332 27.7003 27.3164C28.0717 28.1399 28.6557 28.8474 29.3911 29.365C30.156 29.9153 31.0241 30.3023 31.9423 30.5021C33.0025 30.7498 34.0878 30.8704 35.1759 30.8615C36.0068 30.8615 36.8373 30.8318 37.6673 30.7724C38.4977 30.712 39.2983 30.6286 40.0105 30.5625C40.7227 30.4734 41.3751 30.3828 41.9392 30.2937C42.5033 30.2045 42.9478 30.114 43.274 30.0838V16.9741C43.3142 15.8849 43.1961 14.7956 42.9235 13.7409V13.7409ZM39.69 27.4817C39.1352 27.6108 38.5685 27.6811 37.9992 27.6916C37.3168 27.7218 36.5462 27.752 35.6559 27.752C34.4516 27.806 33.2544 27.5377 32.1859 26.9742C31.741 26.6653 31.387 26.2407 31.1613 25.7455C30.9357 25.2503 30.8467 24.7028 30.9039 24.1608C30.8806 23.5326 31.0573 22.9134 31.4082 22.394C31.7514 21.942 32.1995 21.5821 32.713 21.3459C33.2602 21.096 33.8394 20.9247 34.4337 20.837C35.0232 20.7546 35.6178 20.7147 36.2129 20.7177C36.9372 20.7113 37.6609 20.7593 38.3781 20.8615C38.8248 20.9164 39.2631 21.027 39.6829 21.1907L39.69 27.4817Z" fill="#404040"/>
<path d="M42.9235 13.7409C42.6788 12.8003 42.222 11.9294 41.5888 11.1964C40.9088 10.4448 40.0519 9.87864 39.0974 9.5503C37.8867 9.12683 36.6108 8.92432 35.3297 8.95225C33.8631 8.95351 32.3977 9.03365 30.9395 9.19233L29.1889 12.8741C29.7818 12.6859 30.3861 12.5361 30.9979 12.4255C32.3142 12.2364 33.6427 12.1465 34.9722 12.1567C35.7736 12.1322 36.5714 12.2751 37.3154 12.5765C37.8787 12.8265 38.3691 13.218 38.7399 13.7136C39.0952 14.191 39.3388 14.7435 39.4521 15.3295C39.5798 15.9299 39.6495 16.5413 39.6601 17.1553V18.2033C39.5419 18.1731 39.3638 18.1429 39.0903 18.084C38.8168 18.025 38.4977 17.9647 38.1416 17.9043C37.7855 17.8439 37.3995 17.785 37.0149 17.7605C36.6303 17.7361 36.2143 17.7001 35.8582 17.7001C34.7312 17.6948 33.6071 17.8154 32.5064 18.0596C31.519 18.273 30.5758 18.6577 29.7188 19.1967C28.9348 19.7039 28.2835 20.3942 27.82 21.2094C27.3247 22.1261 27.079 23.1588 27.1077 24.2025C27.0861 25.271 27.288 26.332 27.7003 27.3164C28.0717 28.1399 28.6557 28.8474 29.3911 29.365C30.156 29.9153 31.0241 30.3023 31.9423 30.5021C33.0025 30.7498 34.0878 30.8704 35.1759 30.8615C36.0068 30.8615 36.8373 30.8318 37.6673 30.7724C38.4977 30.712 39.2983 30.6286 40.0105 30.5625C40.7227 30.4734 41.3751 30.3828 41.9392 30.2937C42.5033 30.2045 42.9478 30.114 43.274 30.0838V16.9741C43.3142 15.8849 43.1961 14.7956 42.9235 13.7409V13.7409ZM39.69 27.4817C39.1352 27.6108 38.5685 27.6811 37.9992 27.6916C37.3168 27.7218 36.5462 27.752 35.6559 27.752C34.4516 27.806 33.2544 27.5377 32.1859 26.9742C31.741 26.6653 31.387 26.2407 31.1613 25.7455C30.9357 25.2503 30.8467 24.7028 30.9039 24.1608C30.8806 23.5326 31.0573 22.9134 31.4082 22.394C31.7514 21.942 32.1995 21.5821 32.713 21.3459C33.2602 21.096 33.8394 20.9247 34.4337 20.837C35.0232 20.7546 35.6178 20.7147 36.2129 20.7177C36.9372 20.7113 37.6609 20.7593 38.3781 20.8615C38.8248 20.9164 39.2631 21.027 39.6829 21.1907L39.69 27.4817Z" fill="black" fill-opacity="0.2"/>
<path d="M84.2995 25.3267C84.3188 24.8043 84.2192 24.2844 84.0083 23.8069C83.7974 23.3294 83.4809 22.907 83.083 22.5722C81.7428 21.6603 80.245 21.0102 78.6672 20.6559C77.0066 20.2666 75.4224 19.5989 73.9807 18.6806C73.3454 18.2491 72.8226 17.6694 72.4565 16.9906C72.0905 16.3117 71.8921 15.5538 71.8781 14.7811C71.8642 14.0084 72.035 13.2437 72.3762 12.5519C72.7175 11.86 73.219 11.2614 73.8383 10.8068C75.2914 9.76723 77.044 9.24113 78.8239 9.31023C80.0954 9.2872 81.3548 9.56385 82.5019 10.1182C83.5384 10.607 84.4136 11.3865 85.0231 12.3637C85.6196 13.3225 85.9288 14.4348 85.9134 15.5667H84.1628C84.1908 14.9197 84.0749 14.2746 83.8235 13.6788C83.572 13.0829 83.1915 12.5516 82.7098 12.1236C81.621 11.2159 80.2341 10.7542 78.8239 10.8298C77.4842 10.7573 76.1587 11.1366 75.0562 11.908C74.6146 12.2205 74.2563 12.6381 74.013 13.1239C73.7697 13.6097 73.649 14.1485 73.6616 14.6927C73.6543 15.1985 73.7668 15.6989 73.9898 16.152C74.2128 16.6051 74.5398 16.9979 74.9437 17.2976C76.1672 18.1357 77.5355 18.735 78.9777 19.0645C80.4389 19.4212 81.8529 19.9521 83.1898 20.6458C84.0601 21.1166 84.8034 21.7946 85.355 22.6211C85.8392 23.4335 86.0861 24.3674 86.0673 25.3152C86.0875 26.0855 85.9195 26.8489 85.5782 27.5382C85.2369 28.2274 84.7327 28.8212 84.1101 29.2672C82.6087 30.3182 80.8075 30.8439 78.982 30.7638C77.6094 30.7748 76.2483 30.5104 74.9778 29.986C73.8616 29.5386 72.9016 28.7677 72.2186 27.7707C71.5865 26.8029 71.2561 25.6663 71.2699 24.5073H73.0206C72.9917 25.1765 73.1251 25.8427 73.4094 26.448C73.6936 27.0533 74.1201 27.5794 74.6516 27.9806C75.9125 28.8856 77.4362 29.3409 78.982 29.2744C80.3579 29.3409 81.7191 28.9632 82.8679 28.1962C83.3174 27.8692 83.6822 27.4376 83.9314 26.9381C84.1806 26.4386 84.3069 25.8859 84.2995 25.3267Z" fill="#404040"/>
<path d="M84.2995 25.3267C84.3188 24.8043 84.2192 24.2844 84.0083 23.8069C83.7974 23.3294 83.4809 22.907 83.083 22.5722C81.7428 21.6603 80.245 21.0102 78.6672 20.6559C77.0066 20.2666 75.4224 19.5989 73.9807 18.6806C73.3454 18.2491 72.8226 17.6694 72.4565 16.9906C72.0905 16.3117 71.8921 15.5538 71.8781 14.7811C71.8642 14.0084 72.035 13.2437 72.3762 12.5519C72.7175 11.86 73.219 11.2614 73.8383 10.8068C75.2914 9.76723 77.044 9.24113 78.8239 9.31023C80.0954 9.2872 81.3548 9.56385 82.5019 10.1182C83.5384 10.607 84.4136 11.3865 85.0231 12.3637C85.6196 13.3225 85.9288 14.4348 85.9134 15.5667H84.1628C84.1908 14.9197 84.0749 14.2746 83.8235 13.6788C83.572 13.0829 83.1915 12.5516 82.7098 12.1236C81.621 11.2159 80.2341 10.7542 78.8239 10.8298C77.4842 10.7573 76.1587 11.1366 75.0562 11.908C74.6146 12.2205 74.2563 12.6381 74.013 13.1239C73.7697 13.6097 73.649 14.1485 73.6616 14.6927C73.6543 15.1985 73.7668 15.6989 73.9898 16.152C74.2128 16.6051 74.5398 16.9979 74.9437 17.2976C76.1672 18.1357 77.5355 18.735 78.9777 19.0645C80.4389 19.4212 81.8529 19.9521 83.1898 20.6458C84.0601 21.1166 84.8034 21.7946 85.355 22.6211C85.8392 23.4335 86.0861 24.3674 86.0673 25.3152C86.0875 26.0855 85.9195 26.8489 85.5782 27.5382C85.2369 28.2274 84.7327 28.8212 84.1101 29.2672C82.6087 30.3182 80.8075 30.8439 78.982 30.7638C77.6094 30.7748 76.2483 30.5104 74.9778 29.986C73.8616 29.5386 72.9016 28.7677 72.2186 27.7707C71.5865 26.8029 71.2561 25.6663 71.2699 24.5073H73.0206C72.9917 25.1765 73.1251 25.8427 73.4094 26.448C73.6936 27.0533 74.1201 27.5794 74.6516 27.9806C75.9125 28.8856 77.4362 29.3409 78.982 29.2744C80.3579 29.3409 81.7191 28.9632 82.8679 28.1962C83.3174 27.8692 83.6822 27.4376 83.9314 26.9381C84.1806 26.4386 84.3069 25.8859 84.2995 25.3267Z" fill="black" fill-opacity="0.2"/>
<path d="M103.936 21.1644C103.97 22.9018 103.637 24.6266 102.957 26.2234C102.363 27.595 101.384 28.7606 100.14 29.5759C98.8666 30.3689 97.3937 30.7742 95.8978 30.7432C94.793 30.7798 93.6941 30.5646 92.683 30.1137C91.6719 29.6627 90.7745 28.9875 90.0575 28.1383C88.4873 26.136 87.696 23.6237 87.8325 21.0738V18.9174C87.796 17.1768 88.1404 15.4494 88.841 13.8584C89.426 12.4731 90.407 11.2954 91.6586 10.4757C92.9331 9.71146 94.3882 9.30811 95.8708 9.30811C97.3533 9.30811 98.8084 9.71146 100.083 10.4757C101.324 11.2679 102.305 12.4142 102.9 13.7693C103.587 15.3133 103.941 16.9866 103.939 18.6788V21.163L103.936 21.1644ZM102.185 18.8887C102.31 16.7862 101.713 14.7046 100.495 12.9944C99.9219 12.3251 99.2127 11.7886 98.4153 11.4218C97.618 11.055 96.7515 10.8666 95.8753 10.8695C94.999 10.8724 94.1338 11.0665 93.3389 11.4384C92.5439 11.8104 91.8381 12.3515 91.2698 13.0246C90.0366 14.7641 89.4294 16.8768 89.549 19.0123V21.1975C89.4328 23.2905 90.0294 25.3607 91.2398 27.0644C91.786 27.7687 92.4905 28.3317 93.295 28.7067C94.0996 29.0817 94.9811 29.2579 95.8665 29.2208C96.7528 29.2643 97.6364 29.0909 98.4419 28.7154C99.2475 28.3399 99.9512 27.7735 100.493 27.0644C101.688 25.3205 102.273 23.224 102.154 21.1069V18.8901L102.185 18.8887Z" fill="#404040"/>
<path d="M103.936 21.1644C103.97 22.9018 103.637 24.6266 102.957 26.2234C102.363 27.595 101.384 28.7606 100.14 29.5759C98.8666 30.3689 97.3937 30.7742 95.8978 30.7432C94.793 30.7798 93.6941 30.5646 92.683 30.1137C91.6719 29.6627 90.7745 28.9875 90.0575 28.1383C88.4873 26.136 87.696 23.6237 87.8325 21.0738V18.9174C87.796 17.1768 88.1404 15.4494 88.841 13.8584C89.426 12.4731 90.407 11.2954 91.6586 10.4757C92.9331 9.71146 94.3882 9.30811 95.8708 9.30811C97.3533 9.30811 98.8084 9.71146 100.083 10.4757C101.324 11.2679 102.305 12.4142 102.9 13.7693C103.587 15.3133 103.941 16.9866 103.939 18.6788V21.163L103.936 21.1644ZM102.185 18.8887C102.31 16.7862 101.713 14.7046 100.495 12.9944C99.9219 12.3251 99.2127 11.7886 98.4153 11.4218C97.618 11.055 96.7515 10.8666 95.8753 10.8695C94.999 10.8724 94.1338 11.0665 93.3389 11.4384C92.5439 11.8104 91.8381 12.3515 91.2698 13.0246C90.0366 14.7641 89.4294 16.8768 89.549 19.0123V21.1975C89.4328 23.2905 90.0294 25.3607 91.2398 27.0644C91.786 27.7687 92.4905 28.3317 93.295 28.7067C94.0996 29.0817 94.9811 29.2579 95.8665 29.2208C96.7528 29.2643 97.6364 29.0909 98.4419 28.7154C99.2475 28.3399 99.9512 27.7735 100.493 27.0644C101.688 25.3205 102.273 23.224 102.154 21.1069V18.8901L102.185 18.8887Z" fill="black" fill-opacity="0.2"/>
<path d="M108.09 28.9779H118.293V30.4745H106.339V9.60889H108.09V28.9779Z" fill="#404040"/>
<path d="M108.09 28.9779H118.293V30.4745H106.339V9.60889H108.09V28.9779Z" fill="black" fill-opacity="0.2"/>
<path d="M133.089 9.60889V23.8585C133.109 25.1462 132.792 26.4163 132.169 27.5403C131.573 28.5764 130.684 29.4101 129.617 29.9353C128.437 30.5168 127.135 30.8042 125.821 30.7735C123.918 30.868 122.051 30.2257 120.601 28.9779C119.934 28.3399 119.408 27.568 119.055 26.712C118.702 25.8559 118.532 24.9348 118.554 24.0081V9.63189H120.274V23.732C120.232 24.4815 120.342 25.2318 120.597 25.9371C120.852 26.6423 121.247 27.2876 121.757 27.8336C122.301 28.3336 122.937 28.7205 123.63 28.9721C124.322 29.2237 125.056 29.3351 125.791 29.2999C126.53 29.367 127.274 29.2701 127.972 29.016C128.669 28.7618 129.303 28.3566 129.829 27.8289C130.355 27.3011 130.759 26.6636 131.015 25.961C131.271 25.2585 131.371 24.508 131.308 23.7622V9.60889H133.089Z" fill="#404040"/>
<path d="M133.089 9.60889V23.8585C133.109 25.1462 132.792 26.4163 132.169 27.5403C131.573 28.5764 130.684 29.4101 129.617 29.9353C128.437 30.5168 127.135 30.8042 125.821 30.7735C123.918 30.868 122.051 30.2257 120.601 28.9779C119.934 28.3399 119.408 27.568 119.055 26.712C118.702 25.8559 118.532 24.9348 118.554 24.0081V9.63189H120.274V23.732C120.232 24.4815 120.342 25.2318 120.597 25.9371C120.852 26.6423 121.247 27.2876 121.757 27.8336C122.301 28.3336 122.937 28.7205 123.63 28.9721C124.322 29.2237 125.056 29.3351 125.791 29.2999C126.53 29.367 127.274 29.2701 127.972 29.016C128.669 28.7618 129.303 28.3566 129.829 27.8289C130.355 27.3011 130.759 26.6636 131.015 25.961C131.271 25.2585 131.371 24.508 131.308 23.7622V9.60889H133.089Z" fill="black" fill-opacity="0.2"/>
<path d="M150.832 11.0752H143.743V30.4442H141.992V11.0752H134.934V9.57861H150.832V11.0752Z" fill="#404040"/>
<path d="M150.832 11.0752H143.743V30.4442H141.992V11.0752H134.934V9.57861H150.832V11.0752Z" fill="black" fill-opacity="0.2"/>
<path d="M154.808 30.4443H153.057V9.60889H154.808V30.4443Z" fill="#404040"/>
<path d="M154.808 30.4443H153.057V9.60889H154.808V30.4443Z" fill="black" fill-opacity="0.2"/>
<path d="M173.672 21.1644C173.706 22.9018 173.373 24.6266 172.693 26.2234C172.099 27.595 171.12 28.7606 169.876 29.5759C168.602 30.3689 167.129 30.7742 165.634 30.7432C164.529 30.7799 163.43 30.5648 162.419 30.1138C161.408 29.6628 160.51 28.9876 159.793 28.1383C158.223 26.136 157.432 23.6237 157.568 21.0738V18.9174C157.532 17.1768 157.876 15.4494 158.577 13.8584C159.162 12.4731 160.143 11.2954 161.394 10.4757C162.669 9.71146 164.124 9.30811 165.607 9.30811C167.089 9.30811 168.544 9.71146 169.819 10.4757C171.06 11.2679 172.041 12.4142 172.636 13.7693C173.323 15.3133 173.676 16.9866 173.675 18.6788L173.672 21.1644ZM171.921 18.8887C172.046 16.7862 171.449 14.7046 170.23 12.9944C169.658 12.3248 168.949 11.7882 168.151 11.4213C167.354 11.0544 166.487 10.8659 165.611 10.8687C164.735 10.8716 163.869 11.0658 163.074 11.4379C162.28 11.81 161.574 12.3513 161.006 13.0246C159.772 14.7641 159.165 16.8768 159.285 19.0123V21.1975C159.169 23.2905 159.765 25.3607 160.976 27.0644C161.522 27.7687 162.226 28.3317 163.031 28.7067C163.835 29.0817 164.717 29.2579 165.602 29.2208C166.489 29.2643 167.372 29.0909 168.178 28.7154C168.983 28.3399 169.687 27.7735 170.229 27.0644C171.424 25.3205 172.009 23.224 171.89 21.1069V18.8901L171.921 18.8887Z" fill="#404040"/>
<path d="M173.672 21.1644C173.706 22.9018 173.373 24.6266 172.693 26.2234C172.099 27.595 171.12 28.7606 169.876 29.5759C168.602 30.3689 167.129 30.7742 165.634 30.7432C164.529 30.7799 163.43 30.5648 162.419 30.1138C161.408 29.6628 160.51 28.9876 159.793 28.1383C158.223 26.136 157.432 23.6237 157.568 21.0738V18.9174C157.532 17.1768 157.876 15.4494 158.577 13.8584C159.162 12.4731 160.143 11.2954 161.394 10.4757C162.669 9.71146 164.124 9.30811 165.607 9.30811C167.089 9.30811 168.544 9.71146 169.819 10.4757C171.06 11.2679 172.041 12.4142 172.636 13.7693C173.323 15.3133 173.676 16.9866 173.675 18.6788L173.672 21.1644ZM171.921 18.8887C172.046 16.7862 171.449 14.7046 170.23 12.9944C169.658 12.3248 168.949 11.7882 168.151 11.4213C167.354 11.0544 166.487 10.8659 165.611 10.8687C164.735 10.8716 163.869 11.0658 163.074 11.4379C162.28 11.81 161.574 12.3513 161.006 13.0246C159.772 14.7641 159.165 16.8768 159.285 19.0123V21.1975C159.169 23.2905 159.765 25.3607 160.976 27.0644C161.522 27.7687 162.226 28.3317 163.031 28.7067C163.835 29.0817 164.717 29.2579 165.602 29.2208C166.489 29.2643 167.372 29.0909 168.178 28.7154C168.983 28.3399 169.687 27.7735 170.229 27.0644C171.424 25.3205 172.009 23.224 171.89 21.1069V18.8901L171.921 18.8887Z" fill="black" fill-opacity="0.2"/>
<path d="M191.469 30.4443H189.718L177.824 12.602V30.4443H176.075V9.60889H177.825L189.72 27.4813V9.60889H191.44V30.4443H191.469Z" fill="#404040"/>
<path d="M191.469 30.4443H189.718L177.824 12.602V30.4443H176.075V9.60889H177.825L189.72 27.4813V9.60889H191.44V30.4443H191.469Z" fill="black" fill-opacity="0.2"/>
<path d="M207.249 25.3267C207.268 24.8043 207.169 24.2844 206.958 23.8069C206.747 23.3294 206.431 22.907 206.033 22.5722C204.692 21.6603 203.195 21.0103 201.617 20.6559C199.956 20.2666 198.372 19.5989 196.93 18.6806C196.295 18.2491 195.772 17.6694 195.406 16.9906C195.04 16.3117 194.842 15.5538 194.828 14.7811C194.814 14.0084 194.985 13.2437 195.326 12.5519C195.667 11.86 196.169 11.2614 196.788 10.8068C198.241 9.76723 199.994 9.24113 201.774 9.31023C203.045 9.2872 204.304 9.56385 205.451 10.1182C206.488 10.6069 207.363 11.3865 207.973 12.3637C208.569 13.3225 208.878 14.4348 208.863 15.5667H207.112C207.141 14.9197 207.025 14.2746 206.773 13.6787C206.522 13.0829 206.141 12.5515 205.659 12.1236C204.571 11.2159 203.184 10.7542 201.774 10.8298C200.434 10.7573 199.108 11.1366 198.006 11.908C197.564 12.2205 197.206 12.6381 196.963 13.1239C196.719 13.6097 196.599 14.1485 196.611 14.6927C196.604 15.1985 196.716 15.6989 196.939 16.152C197.162 16.6051 197.489 16.9979 197.893 17.2976C199.117 18.1357 200.485 18.735 201.927 19.0645C203.389 19.4212 204.803 19.9521 206.14 20.6458C207.01 21.1166 207.753 21.7946 208.305 22.6211C208.789 23.4335 209.036 24.3674 209.017 25.3152C209.037 26.0855 208.869 26.8489 208.528 27.5382C208.186 28.2274 207.682 28.8212 207.06 29.2672C205.558 30.3182 203.757 30.8439 201.932 30.7638C200.559 30.7748 199.198 30.5104 197.927 29.986C196.811 29.5386 195.851 28.7677 195.168 27.7707C194.536 26.8029 194.206 25.6663 194.22 24.5073H195.97C195.941 25.1765 196.075 25.8427 196.359 26.448C196.643 27.0533 197.07 27.5794 197.601 27.9806C198.862 28.8856 200.386 29.3409 201.932 29.2744C203.308 29.3409 204.669 28.9632 205.818 28.1962C206.267 27.8692 206.632 27.4376 206.881 26.9381C207.13 26.4386 207.257 25.8859 207.249 25.3267Z" fill="#404040"/>
<path d="M207.249 25.3267C207.268 24.8043 207.169 24.2844 206.958 23.8069C206.747 23.3294 206.431 22.907 206.033 22.5722C204.692 21.6603 203.195 21.0103 201.617 20.6559C199.956 20.2666 198.372 19.5989 196.93 18.6806C196.295 18.2491 195.772 17.6694 195.406 16.9906C195.04 16.3117 194.842 15.5538 194.828 14.7811C194.814 14.0084 194.985 13.2437 195.326 12.5519C195.667 11.86 196.169 11.2614 196.788 10.8068C198.241 9.76723 199.994 9.24113 201.774 9.31023C203.045 9.2872 204.304 9.56385 205.451 10.1182C206.488 10.6069 207.363 11.3865 207.973 12.3637C208.569 13.3225 208.878 14.4348 208.863 15.5667H207.112C207.141 14.9197 207.025 14.2746 206.773 13.6787C206.522 13.0829 206.141 12.5515 205.659 12.1236C204.571 11.2159 203.184 10.7542 201.774 10.8298C200.434 10.7573 199.108 11.1366 198.006 11.908C197.564 12.2205 197.206 12.6381 196.963 13.1239C196.719 13.6097 196.599 14.1485 196.611 14.6927C196.604 15.1985 196.716 15.6989 196.939 16.152C197.162 16.6051 197.489 16.9979 197.893 17.2976C199.117 18.1357 200.485 18.735 201.927 19.0645C203.389 19.4212 204.803 19.9521 206.14 20.6458C207.01 21.1166 207.753 21.7946 208.305 22.6211C208.789 23.4335 209.036 24.3674 209.017 25.3152C209.037 26.0855 208.869 26.8489 208.528 27.5382C208.186 28.2274 207.682 28.8212 207.06 29.2672C205.558 30.3182 203.757 30.8439 201.932 30.7638C200.559 30.7748 199.198 30.5104 197.927 29.986C196.811 29.5386 195.851 28.7677 195.168 27.7707C194.536 26.8029 194.206 25.6663 194.22 24.5073H195.97C195.941 25.1765 196.075 25.8427 196.359 26.448C196.643 27.0533 197.07 27.5794 197.601 27.9806C198.862 28.8856 200.386 29.3409 201.932 29.2744C203.308 29.3409 204.669 28.9632 205.818 28.1962C206.267 27.8692 206.632 27.4376 206.881 26.9381C207.13 26.4386 207.257 25.8859 207.249 25.3267Z" fill="black" fill-opacity="0.2"/>
</g>
<defs>
<clipPath id="clip0_179_502">
<rect width="209" height="47" fill="white"/>
</clipPath>
</defs>
</svg>
